HIERARCHY
ROOT hip
{
	OFFSET 0.000000 0.000000 0.000000 
	CHANNELS 6 Xposition Yposition Zposition Xrotation Zrotation Yrotation
	JOINT abdomen
	{
		OFFSET 0.000000 3.402643 0.000000 
		CHANNELS 3 Xrotation Zrotation Yrotation
		JOINT chest
		{
			OFFSET 0.000000 8.438565 -0.680529 
			CHANNELS 3 Xrotation Zrotation Yrotation
			JOINT neck
			{
				OFFSET 0.000000 10.207942 -0.272212 
				CHANNELS 3 Xrotation Zrotation Yrotation
				JOINT head
				{
					OFFSET 0.000000 3.130431 0.000000 
					CHANNELS 3 Xrotation Zrotation Yrotation
					End Site
					{
						OFFSET 0.000000 3.130435 0.000000 
					}
				}
			}
			JOINT lCollar
			{
				OFFSET 3.470700 6.669187 -0.816635 
				CHANNELS 3 Yrotation Zrotation Xrotation
				JOINT lShldr
				{
					OFFSET 3.198488 0.000000 0.000000 
					CHANNELS 3 Zrotation Yrotation Xrotation
					JOINT lForeArm
					{
						OFFSET 10.139888 0.000000 0.000000 
						CHANNELS 3 Yrotation Zrotation Xrotation
						JOINT lHand
						{
							OFFSET 8.370511 0.000000 0.000000 
							CHANNELS 3 Zrotation Yrotation Xrotation
							End Site
							{
								OFFSET 4.083176 0.000000 0.000000 
							}
						}
					}
				}
			}
			JOINT rCollar
			{
				OFFSET -3.470700 6.669187 -0.816635 
				CHANNELS 3 Yrotation Zrotation Xrotation
				JOINT rShldr
				{
					OFFSET -3.198488 0.000000 0.000000 
					CHANNELS 3 Zrotation Yrotation Xrotation
					JOINT rForeArm
					{
						OFFSET -10.139888 0.000000 0.000000 
						CHANNELS 3 Yrotation Zrotation Xrotation
						JOINT rHand
						{
							OFFSET -8.370511 0.000000 0.000000 
							CHANNELS 3 Zrotation Yrotation Xrotation
							End Site
							{
								OFFSET -4.083176 0.000000 0.000000 
							}
						}
					}
				}
			}
		}
	}
	JOINT lThigh
	{
		OFFSET 5.308129 -1.633274 1.361059 
		CHANNELS 3 Xrotation Zrotation Yrotation
		JOINT lShin
		{
			OFFSET -2.041588 -20.007561 0.000000 
			CHANNELS 3 Xrotation Zrotation Yrotation
			JOINT lFoot
			{
				OFFSET 0.000000 -19.190928 -1.224953 
				CHANNELS 3 Xrotation Yrotation Zrotation
				End Site
				{
					OFFSET 0.000000 -2.449906 4.627600 
				}
			}
		}
	}
	JOINT rThigh
	{
		OFFSET -5.308129 -1.633274 1.361059 
		CHANNELS 3 Xrotation Zrotation Yrotation
		JOINT rShin
		{
			OFFSET 2.041588 -20.007561 0.000000 
			CHANNELS 3 Xrotation Zrotation Yrotation
			JOINT rFoot
			{
				OFFSET 0.000000 -19.190928 -1.224953 
				CHANNELS 3 Xrotation Yrotation Zrotation
				End Site
				{
					OFFSET 0.000000 -2.449906 4.627600 
				}
			}
		}
	}
}
MOTION
Frames: 8
Frame Time: 0.016667
-1.121559 45.717365 2.098770 -2.392937 -1.948542 25.474754 22.816673 -0.804125 -7.217590 -12.183853 5.708582 -6.221777 -25.697674 -6.103835 -14.694999 27.821369 7.825479 -14.404457 18.389038 -14.507081 -0.074214 -71.045563 -40.585938 42.578896 -123.628258 0.560182 6.221053 18.676998 15.711780 5.182273 -7.739658 11.884213 -0.070306 46.576271 -5.908452 22.557747 111.685631 0.246976 -3.043788 -14.624649 2.101126 -0.689111 2.010586 23.523739 30.292015 45.242550 -0.454119 -2.905130 -29.242212 5.094919 -9.424812 -18.271288 -20.702213 -25.399405 38.740841 0.410053 2.398009 -18.620445 7.292898 14.565710 
-1.518485 46.042931 2.967064 -2.655104 -2.475845 25.132137 21.924595 -0.813147 -7.579021 -12.446136 6.324547 -6.661300 -23.107225 -6.208782 -13.970502 26.413208 7.930232 -13.835695 18.613857 -13.948019 -0.035926 -72.247696 -41.981281 41.687946 -125.334435 0.643560 7.385128 19.573069 14.332896 5.011981 -7.434137 10.630057 -0.039870 47.109592 -5.629704 21.976595 113.525917 0.320105 -3.105036 -14.793797 1.620501 -0.518519 2.867082 24.477621 29.561512 44.200985 -0.619638 -2.811882 -26.696575 6.567712 -8.791023 -16.863810 -18.588457 -25.546909 37.700554 0.322132 2.234649 -19.175495 6.889817 14.399603 
-1.911951 46.520741 3.845826 -2.920175 -2.731390 24.776121 21.130468 -1.160391 -8.029050 -12.357640 7.202212 -7.008183 -20.943361 -6.024703 -13.376635 25.437422 7.933544 -13.155203 18.817026 -13.511847 -0.047219 -73.275871 -43.435169 40.667068 -126.990883 0.650869 7.534943 19.771517 14.285024 5.089519 -7.187249 9.663119 -0.119532 47.154785 -5.041575 20.795240 115.814354 0.346371 -3.175566 -15.847695 1.426850 -0.516420 3.319463 24.901346 28.425791 43.517132 -0.619591 -2.797323 -23.613300 9.012758 -8.156775 -15.379436 -16.830671 -25.644085 36.303886 0.503690 2.218144 -18.222887 6.740128 14.401804 
-2.305395 46.998512 4.724531 -3.186149 -2.997154 24.420212 20.333220 -1.516489 -8.470012 -12.270156 8.078342 -7.357937 -18.776569 -5.877106 -12.783883 24.469084 7.945183 -12.474673 19.022501 -13.062795 -0.047173 -74.278229 -44.918098 39.638721 -128.647202 0.661438 7.686364 19.968361 14.249309 5.161139 -6.933314 8.685737 -0.197554 47.188904 -4.449668 19.613682 118.092247 0.397232 -3.251881 -16.901552 1.243233 -0.510217 3.747468 25.328981 27.289503 42.824974 -0.619334 -2.743629 -20.529585 11.442983 -7.667363 -13.884632 -15.070758 -25.673912 34.876945 0.683408 2.195302 -17.254902 6.579483 14.409071 
-2.610984 47.585350 5.528134 -3.531973 -3.080973 23.893753 20.068802 -1.871681 -8.911347 -12.177676 8.867562 -7.619422 -16.709391 -5.958534 -12.136916 23.942997 8.125712 -11.868587 19.214563 -12.789633 -0.017985 -75.033150 -46.016766 38.460812 -129.865173 0.636240 7.797588 20.030632 14.651223 5.260722 -6.784624 7.617301 -0.167278 46.801388 -3.303943 17.196712 120.427124 0.517986 -4.557485 -14.962358 0.441474 -0.239265 4.643294 25.022532 26.782547 41.565979 -0.795212 -2.686526 -18.080635 12.992002 -7.578951 -12.284285 -14.068446 -26.282133 33.734955 0.663847 2.145148 -14.217710 8.235719 14.231026 
-2.916555 48.172153 6.331692 -3.880789 -3.173844 23.377615 19.800110 -2.225901 -9.353001 -12.084156 9.665346 -7.885391 -14.638026 -6.068241 -11.492004 23.409391 8.305771 -11.270859 19.416109 -12.516286 0.011107 -75.765518 -47.125484 37.272900 -131.092422 0.614237 7.915193 20.096666 15.058796 5.370752 -6.633706 6.550147 -0.146779 46.374161 -2.170568 14.777205 122.759811 0.588525 -5.868369 -13.027053 -0.371840 -0.004241 5.542219 24.711885 26.269106 40.317024 -0.967150 -2.595639 -15.592214 14.478406 -7.588048 -10.712029 -13.042464 -26.860176 32.592438 0.654114 2.108096 -11.162031 9.852182 13.979157 
-3.124956 48.715424 6.952012 -4.321385 -2.914798 22.491371 20.057938 -2.263225 -9.538786 -12.257344 9.922513 -8.060558 -12.832191 -6.061926 -10.872091 23.058458 8.476283 -10.663536 19.507484 -12.268928 -0.065036 -76.181160 -48.172398 36.154816 -132.076370 0.614020 7.587673 19.956541 15.219529 5.446326 -6.555909 5.673275 -0.166050 45.671032 -0.679494 11.934038 124.742065 0.800815 -7.952058 -13.545088 0.039357 -0.170202 5.777713 23.882719 26.117781 40.151558 -0.921759 -2.581125 -15.178679 10.726641 -8.987293 -10.283113 -13.192636 -27.509697 32.854771 0.566212 2.164305 -6.261923 12.680241 13.319447 
-3.333354 49.258690 7.572313 -4.760585 -2.651496 21.606104 20.318058 -2.310041 -9.734720 -12.433557 10.189040 -8.235900 -11.020834 -6.083661 -10.254231 22.707790 8.655811 -10.065945 19.591776 -12.018532 -0.130037 -76.580940 -49.230721 35.044689 -133.065872 0.635457 7.268799 19.829338 15.376504 5.532510 -6.478737 4.786586 -0.185346 44.902203 0.776137 9.067171 126.733284 0.945353 -10.048574 -14.074637 0.435579 -0.350805 5.992243 23.052509 25.950380 39.976372 -0.892512 -2.562095 -14.825752 6.928294 -10.341573 -9.852307 -13.321122 -28.159647 33.115417 0.478384 2.258950 -1.275048 15.402386 12.430223 
